<svg xmlns="http://www.w3.org/2000/svg" width="169.775" height="25.151" viewBox="0 0 169.775 25.151"><path d="M14-19.409H6.123v5.435h7.6v3.208h-7.6V0H2.71V-22.617H14Zm13.638,5.142h3.311V0H27.642V-1.494a6.322,6.322,0,0,1-4.38,1.9,6.31,6.31,0,0,1-4.893-2.139A7.954,7.954,0,0,1,16.45-7.178a7.708,7.708,0,0,1,1.919-5.347,6.186,6.186,0,0,1,4.8-2.139,6.067,6.067,0,0,1,4.468,2.051Zm-7.822,7.09a4.97,4.97,0,0,0,1.1,3.34,3.6,3.6,0,0,0,2.842,1.3,3.782,3.782,0,0,0,2.959-1.26A4.878,4.878,0,0,0,27.847-7.1a4.878,4.878,0,0,0-1.128-3.311,3.729,3.729,0,0,0-2.93-1.274A3.643,3.643,0,0,0,20.947-10.4,4.752,4.752,0,0,0,19.819-7.178Zm15.293-7.09h3.3v1.318A6.887,6.887,0,0,1,40.034-14.3a3.945,3.945,0,0,1,1.8-.366,4.374,4.374,0,0,1,3.823,2.109,4.949,4.949,0,0,1,4.2-2.109q4.819,0,4.819,5.845V0H51.372V-7.925a6.113,6.113,0,0,0-.5-2.9,1.805,1.805,0,0,0-1.685-.864A2.149,2.149,0,0,0,47.2-10.664a6.6,6.6,0,0,0-.623,3.3V0H43.271V-7.881q0-3.809-2.2-3.809a2.2,2.2,0,0,0-2.029,1.04,6.486,6.486,0,0,0-.637,3.281V0h-3.3Zm27.026,0v8.188q0,3.545,2.8,3.545t2.8-3.545v-8.188h3.3v8.262a9.192,9.192,0,0,1-.425,2.959A4.97,4.97,0,0,1,69.185-1.04,6.245,6.245,0,0,1,64.937.41,6.224,6.224,0,0,1,60.7-1.04a5.051,5.051,0,0,1-1.45-2.007,8.16,8.16,0,0,1-.41-2.959v-8.262ZM78.486-24.741V0h-3.3V-24.741Zm7.471,10.474V0h-3.3V-14.268ZM82.163-20.2a2.042,2.042,0,0,1,.63-1.494,2.058,2.058,0,0,1,1.509-.63,2.075,2.075,0,0,1,1.523.63,2.027,2.027,0,0,1,.63,1.509,2.075,2.075,0,0,1-.63,1.523,2.027,2.027,0,0,1-1.509.63,2.075,2.075,0,0,1-1.523-.63A2.092,2.092,0,0,1,82.163-20.2ZM93.53-11.191V0h-3.3V-11.191H88.828v-3.076h1.406V-19.5h3.3v5.229h2.563v3.076Zm18.062,4.834H101.367a4.333,4.333,0,0,0,1.143,2.8A3.483,3.483,0,0,0,105.1-2.534a3.373,3.373,0,0,0,2.036-.586,8.337,8.337,0,0,0,1.8-2.168l2.783,1.553a11.072,11.072,0,0,1-1.362,1.882,7.243,7.243,0,0,1-1.538,1.289,6.168,6.168,0,0,1-1.772.74,8.628,8.628,0,0,1-2.065.234,6.716,6.716,0,0,1-5.127-2.051,7.692,7.692,0,0,1-1.934-5.479A7.9,7.9,0,0,1,99.8-12.6a6.464,6.464,0,0,1,5.01-2.065,6.407,6.407,0,0,1,4.98,2.007,7.894,7.894,0,0,1,1.816,5.522Zm-3.384-2.7a3.157,3.157,0,0,0-3.325-2.637,3.415,3.415,0,0,0-1.128.183,3.227,3.227,0,0,0-.959.527,3.343,3.343,0,0,0-.74.828,3.846,3.846,0,0,0-.469,1.1Zm19.541-15.688V0h-3.3V-24.741Zm14.692,10.474h3.311V0h-3.311V-1.494a6.322,6.322,0,0,1-4.38,1.9,6.31,6.31,0,0,1-4.893-2.139,7.954,7.954,0,0,1-1.919-5.449,7.708,7.708,0,0,1,1.919-5.347,6.186,6.186,0,0,1,4.8-2.139,6.067,6.067,0,0,1,4.468,2.051Zm-7.822,7.09a4.97,4.97,0,0,0,1.1,3.34,3.6,3.6,0,0,0,2.842,1.3,3.782,3.782,0,0,0,2.959-1.26A4.878,4.878,0,0,0,142.646-7.1a4.878,4.878,0,0,0-1.128-3.311,3.729,3.729,0,0,0-2.93-1.274,3.643,3.643,0,0,0-2.842,1.289A4.752,4.752,0,0,0,134.619-7.178Zm18.589-17.563v12.129a6.082,6.082,0,0,1,4.482-2.051,6.167,6.167,0,0,1,4.8,2.153,7.688,7.688,0,0,1,1.919,5.332,7.849,7.849,0,0,1-1.934,5.449A6.233,6.233,0,0,1,157.632.41a6.165,6.165,0,0,1-4.424-1.9V0h-3.3V-24.741Zm7.837,17.71a4.928,4.928,0,0,0-1.113-3.34,3.567,3.567,0,0,0-2.827-1.318,3.79,3.79,0,0,0-2.959,1.274,4.733,4.733,0,0,0-1.128,3.281,4.8,4.8,0,0,0,1.113,3.325,3.7,3.7,0,0,0,2.93,1.274A3.633,3.633,0,0,0,159.9-3.809,4.68,4.68,0,0,0,161.045-7.031Zm7.368,5.391a1.942,1.942,0,0,1,.6-1.421,1.959,1.959,0,0,1,1.436-.6,1.959,1.959,0,0,1,1.436.6,1.959,1.959,0,0,1,.6,1.436,1.976,1.976,0,0,1-.6,1.45,1.952,1.952,0,0,1-1.436.586A1.97,1.97,0,0,1,169-.176,1.987,1.987,0,0,1,168.413-1.641Z" transform="translate(-2.71 24.741)" fill="#020202"/></svg>