<svg xmlns="http://www.w3.org/2000/svg" width="169.775" height="25.151" viewBox="0 0 169.775 25.151"><path d="M11.29 5.332H3.413v5.435h7.6v3.208h-7.6v10.766H0V2.124h11.29zm13.638 5.142h3.311v14.267h-3.307v-1.494a6.322 6.322 0 01-4.38 1.9 6.31 6.31 0 01-4.893-2.139 7.954 7.954 0 01-1.919-5.445 7.708 7.708 0 011.919-5.347 6.186 6.186 0 014.8-2.139 6.067 6.067 0 014.468 2.051zm-7.822 7.09a4.97 4.97 0 001.1 3.34 3.6 3.6 0 002.842 1.3 3.782 3.782 0 002.959-1.26 4.878 4.878 0 001.13-3.303 4.878 4.878 0 00-1.128-3.311 3.729 3.729 0 00-2.93-1.274 3.643 3.643 0 00-2.842 1.285 4.752 4.752 0 00-1.128 3.222zm15.293-7.09h3.3v1.318a6.887 6.887 0 011.625-1.351 3.945 3.945 0 011.8-.366 4.374 4.374 0 013.823 2.109 4.949 4.949 0 014.2-2.109q4.819 0 4.819 5.845v8.821h-3.304v-7.925a6.113 6.113 0 00-.5-2.9 1.805 1.805 0 00-1.685-.864 2.149 2.149 0 00-1.987 1.025 6.6 6.6 0 00-.623 3.3v7.364h-3.306V16.86q0-3.809-2.2-3.809a2.2 2.2 0 00-2.029 1.04 6.486 6.486 0 00-.637 3.281v7.369h-3.3zm27.026 0v8.188q0 3.545 2.8 3.545t2.8-3.545v-8.188h3.3v8.262a9.192 9.192 0 01-.425 2.959 4.97 4.97 0 01-1.425 2.006 6.245 6.245 0 01-4.248 1.45 6.224 6.224 0 01-4.237-1.45 5.051 5.051 0 01-1.45-2.007 8.16 8.16 0 01-.41-2.959v-8.262zM75.776 0v24.741h-3.3V0zm7.471 10.474v14.267h-3.3V10.473zm-3.794-5.933a2.042 2.042 0 01.63-1.494 2.058 2.058 0 011.509-.63 2.075 2.075 0 011.523.63 2.027 2.027 0 01.63 1.509 2.075 2.075 0 01-.63 1.523 2.027 2.027 0 01-1.509.63 2.075 2.075 0 01-1.523-.63 2.092 2.092 0 01-.63-1.538zM90.82 13.55v11.191h-3.3V13.55h-1.402v-3.076h1.406V5.241h3.3v5.229h2.563v3.076zm18.062 4.834H98.657a4.333 4.333 0 001.143 2.8 3.483 3.483 0 002.59 1.023 3.373 3.373 0 002.036-.586 8.337 8.337 0 001.8-2.168l2.783 1.553a11.072 11.072 0 01-1.362 1.882 7.243 7.243 0 01-1.538 1.289 6.168 6.168 0 01-1.772.74 8.628 8.628 0 01-2.065.234 6.716 6.716 0 01-5.127-2.051 7.692 7.692 0 01-1.934-5.479 7.9 7.9 0 011.879-5.48 6.464 6.464 0 015.01-2.065 6.407 6.407 0 014.98 2.007 7.894 7.894 0 011.816 5.522zm-3.384-2.7a3.157 3.157 0 00-3.325-2.637 3.415 3.415 0 00-1.128.183 3.227 3.227 0 00-.959.527 3.343 3.343 0 00-.74.828 3.846 3.846 0 00-.469 1.1zM125.039-.004v24.745h-3.3V0zm14.692 10.474h3.311v14.271h-3.311v-1.494a6.322 6.322 0 01-4.38 1.9 6.31 6.31 0 01-4.893-2.139 7.954 7.954 0 01-1.919-5.449 7.708 7.708 0 011.919-5.347 6.186 6.186 0 014.8-2.139 6.067 6.067 0 014.468 2.051zm-7.822 7.09a4.97 4.97 0 001.1 3.34 3.6 3.6 0 002.842 1.3 3.782 3.782 0 002.959-1.26 4.878 4.878 0 001.126-3.299 4.878 4.878 0 00-1.128-3.311 3.729 3.729 0 00-2.93-1.274 3.643 3.643 0 00-2.842 1.289 4.752 4.752 0 00-1.127 3.218zM150.498-.003v12.129a6.082 6.082 0 014.482-2.051 6.167 6.167 0 014.8 2.153 7.688 7.688 0 011.919 5.332 7.849 7.849 0 01-1.934 5.449 6.233 6.233 0 01-4.843 2.142 6.165 6.165 0 01-4.424-1.9v1.49h-3.3V0zm7.837 17.71a4.928 4.928 0 00-1.113-3.34 3.567 3.567 0 00-2.827-1.318 3.79 3.79 0 00-2.959 1.274 4.733 4.733 0 00-1.128 3.281 4.8 4.8 0 001.113 3.325 3.7 3.7 0 002.93 1.274 3.633 3.633 0 002.839-1.271 4.68 4.68 0 001.145-3.222zm7.368 5.391a1.942 1.942 0 01.6-1.421 1.959 1.959 0 011.436-.6 1.959 1.959 0 011.436.6 1.959 1.959 0 01.6 1.436 1.976 1.976 0 01-.6 1.45 1.952 1.952 0 01-1.436.586 1.97 1.97 0 01-1.449-.584 1.987 1.987 0 01-.587-1.465z" fill="#020202"/></svg>